<svg width="56" height="45" viewBox="0 0 56 45" fill="none" xmlns="http://www.w3.org/2000/svg">
<g clip-path="url(#clip0_5_127)">
<path d="M36.295 3.58501L25.095 42.9609C24.6662 44.455 23.1175 45.3164 21.63 44.8945C20.1425 44.4638 19.285 42.9082 19.705 41.414L30.905 2.0399C31.3337 0.546282 32.8825 -0.318562 34.37 0.108235C35.8575 0.534944 36.715 2.09175 36.295 3.58501ZM45.3775 10.6699L55.1775 20.5136C56.2712 21.6123 56.2712 23.3877 55.1775 24.4863L45.3775 34.33C44.2837 35.4287 42.5162 35.4287 41.4225 34.33C40.3287 33.2314 40.3287 31.456 41.4225 30.3574L49.2362 22.5L41.4225 14.6425C40.3287 13.5439 40.3287 11.7685 41.4225 10.6699C42.5162 9.57124 44.2837 9.57124 45.3775 10.6699ZM14.5775 14.6425L6.75937 22.5L14.5775 30.3574C15.6712 31.456 15.6712 33.2314 14.5775 34.33C13.4837 35.4287 11.7162 35.4287 10.6225 34.33L0.82005 24.4863C-0.27335 23.3877 -0.27335 21.6123 0.82005 20.5136L10.6225 10.6699C11.7162 9.57124 13.4837 9.57124 14.5775 10.6699C15.6712 11.7685 15.6712 13.5439 14.5775 14.6425Z" fill="#1F92BF"/>
</g>
<defs>
<clipPath id="clip0_5_127">
<rect width="56" height="45" fill="white"/>
</clipPath>
</defs>
</svg>
