<svg width="53" height="54" viewBox="0 0 53 54" fill="none" xmlns="http://www.w3.org/2000/svg">
<path d="M17.7272 41.9133C17.7272 42.1242 17.4815 42.293 17.1716 42.293C16.819 42.3246 16.5732 42.1559 16.5732 41.9133C16.5732 41.7023 16.819 41.5336 17.1288 41.5336C17.4494 41.502 17.7272 41.6707 17.7272 41.9133ZM14.404 41.4387C14.3292 41.6496 14.5429 41.8922 14.8635 41.9555C15.1413 42.0609 15.4619 41.9555 15.526 41.7445C15.5901 41.5336 15.3871 41.291 15.0665 41.1961C14.7887 41.1223 14.4788 41.2277 14.404 41.4387ZM19.127 41.2594C18.8171 41.3332 18.6034 41.5336 18.6355 41.7762C18.6675 41.9871 18.9454 42.1242 19.2659 42.0504C19.5758 41.9766 19.7895 41.7762 19.7575 41.5652C19.7254 41.3648 19.4369 41.2277 19.127 41.2594ZM26.1581 0.84375C11.3373 0.84375 0 11.9496 0 26.5781C0 38.2746 7.45847 48.2836 18.1119 51.8063C19.4796 52.0488 19.9605 51.2156 19.9605 50.5301C19.9605 49.8762 19.9284 46.2691 19.9284 44.0543C19.9284 44.0543 12.4486 45.6363 10.8778 40.9113C10.8778 40.9113 9.65968 37.8422 7.90726 37.0512C7.90726 37.0512 5.46028 35.3953 8.07823 35.427C8.07823 35.427 10.7389 35.6379 12.2028 38.148C14.5429 42.2191 18.4645 41.0484 19.9925 40.3523C20.2383 38.6648 20.9329 37.4941 21.7022 36.798C15.729 36.1441 9.70242 35.2898 9.70242 25.1437C9.70242 22.2434 10.5145 20.7879 12.2242 18.9316C11.9464 18.2461 11.0381 15.4195 12.502 11.7703C14.7353 11.0848 19.875 14.618 19.875 14.618C22.0121 14.0273 24.3095 13.7215 26.5855 13.7215C28.8615 13.7215 31.1589 14.0273 33.296 14.618C33.296 14.618 38.4357 11.0742 40.669 11.7703C42.1329 15.4301 41.2246 18.2461 40.9468 18.9316C42.6565 20.7984 43.7036 22.2539 43.7036 25.1437C43.7036 35.3215 37.4099 36.1336 31.4367 36.798C32.4198 37.6312 33.2532 39.2133 33.2532 41.6918C33.2532 45.2461 33.2212 49.6441 33.2212 50.509C33.2212 51.1945 33.7127 52.0277 35.0698 51.7852C45.7552 48.2836 53 38.2746 53 26.5781C53 11.9496 40.9788 0.84375 26.1581 0.84375ZM10.3863 37.2199C10.2474 37.3254 10.2794 37.568 10.4611 37.7684C10.6321 37.9371 10.8778 38.0109 11.0167 37.8738C11.1556 37.7684 11.1236 37.5258 10.9419 37.3254C10.771 37.1566 10.5252 37.0828 10.3863 37.2199ZM9.23226 36.3656C9.15746 36.5027 9.26431 36.6715 9.47802 36.777C9.64899 36.8824 9.8627 36.8508 9.9375 36.7031C10.0123 36.566 9.90544 36.3973 9.69173 36.2918C9.47802 36.2285 9.30706 36.2602 9.23226 36.3656ZM12.6944 40.1203C12.5234 40.2574 12.5875 40.5738 12.8333 40.7742C13.079 41.0168 13.3889 41.0484 13.5278 40.8797C13.6667 40.7426 13.6026 40.4262 13.3889 40.2258C13.1538 39.9832 12.8333 39.9516 12.6944 40.1203ZM11.4762 38.5699C11.3052 38.6754 11.3052 38.9496 11.4762 39.1922C11.6472 39.4348 11.9357 39.5402 12.0746 39.4348C12.2456 39.2977 12.2456 39.0234 12.0746 38.7809C11.925 38.5383 11.6472 38.4328 11.4762 38.5699Z" fill="#1F92BF"/>
</svg>
