<svg width="60" height="48" viewBox="0 0 60 48" fill="none" xmlns="http://www.w3.org/2000/svg">
<path d="M12 9H48V33H54V7.5C54 5.02781 51.975 3 49.5 3H10.5C8.02781 3 6 5.02781 6 7.5V33H12V9ZM58.5 36H1.5C0.679688 36 0 36.6844 0 37.5V39C0 42.3047 2.69531 45 6 45H54C57.3047 45 60 42.3047 60 39V37.5C60 36.6844 59.325 36 58.5 36ZM34.3031 26.8313C34.6688 27.1969 35.1469 27.375 35.625 27.375C36.1031 27.375 36.5841 27.1933 36.9506 26.8271L41.4506 22.3271C42.183 21.5947 42.183 20.4052 41.4506 19.6731L36.9506 15.1731C36.2183 14.4406 35.0316 14.4406 34.2994 15.1731C33.567 15.9055 33.567 17.0949 34.2994 17.8271L37.4738 20.9996L34.2994 24.1721C33.5625 24.9094 33.5625 26.1 34.3031 26.8313ZM25.6969 15.1781C24.9645 14.4457 23.7778 14.4457 23.0456 15.1781L18.5456 19.6781C17.8133 20.4106 17.8133 21.6 18.5456 22.3322L23.0456 26.8322C23.4188 27.1969 23.8969 27.375 24.375 27.375C24.8531 27.375 25.3341 27.1933 25.7006 26.8271C26.433 26.0947 26.433 24.9053 25.7006 24.1731L22.5281 21L25.7025 17.8275C26.3531 17.1 26.3531 15.9094 25.6969 15.1781Z" fill="#1F92BF"/>
</svg>
