<svg width="56" height="58" viewBox="0 0 56 58" fill="none" xmlns="http://www.w3.org/2000/svg">
<path d="M28 0.90625C12.536 0.90625 0 13.4842 0 29C0 44.5158 12.536 57.0938 28 57.0938C43.464 57.0938 56 44.5158 56 29C56 13.4842 43.464 0.90625 28 0.90625ZM40.9785 20.0123C40.5571 24.4546 38.7338 35.2348 37.8059 40.2103C37.4134 42.3155 36.6405 43.0215 35.8924 43.0905C34.2666 43.2407 33.0316 42.0124 31.4568 40.9765C28.9924 39.3557 27.6002 38.3467 25.208 36.7651C22.4436 34.9373 24.2357 33.9331 25.8111 32.2905C26.2235 31.8608 33.3877 25.3225 33.5264 24.7294C33.5437 24.6552 33.5603 24.3782 33.3961 24.2328C33.2319 24.0873 32.9908 24.1366 32.8163 24.1761C32.5692 24.2325 28.6324 26.8433 21.0058 32.0086C19.8884 32.7785 18.8763 33.1536 17.9693 33.134C16.9696 33.1123 15.0465 32.5669 13.6168 32.1005C11.8633 31.5287 10.4696 31.2263 10.591 30.255C10.6542 29.7491 11.3486 29.2317 12.6741 28.7031C20.8367 25.1349 26.2797 22.7824 29.003 21.6457C36.7789 18.4005 38.3947 17.8368 39.4478 17.818C39.6795 17.8142 40.1974 17.8717 40.5328 18.1448C40.756 18.3394 40.8982 18.6109 40.9314 18.9056C40.9882 19.2716 41.004 19.6428 40.9785 20.0123Z" fill="#1F92BF"/>
</svg>
